<svg width="308" height="108" viewBox="0 0 308 108" fill="none" xmlns="http://www.w3.org/2000/svg">
<g filter="url(#filter0_d)">
<path fill-rule="evenodd" clip-rule="evenodd" d="M9 5H299V95H9V5ZM4 0H9H299H304V5V95V100H299H9H4V95V5V0ZM151.047 60.5508H156.918L157.41 23.8125H150.59L151.047 60.5508ZM151.293 69.0938C150.66 69.7969 150.344 70.6758 150.344 71.7305C150.344 72.7852 150.66 73.6641 151.293 74.3672C151.949 75.0469 152.91 75.3867 154.176 75.3867C155.441 75.3867 156.402 75.0469 157.059 74.3672C157.715 73.6641 158.043 72.7852 158.043 71.7305C158.043 70.6758 157.715 69.7969 157.059 69.0938C156.402 68.3672 155.441 68.0039 154.176 68.0039C152.91 68.0039 151.949 68.3672 151.293 69.0938Z" fill="white"/>
</g>
<defs>
<filter id="filter0_d" x="0" y="0" width="308" height="108" filterUnits="userSpaceOnUse" color-interpolation-filters="sRGB">
<feFlood flood-opacity="0" result="BackgroundImageFix"/>
<feColorMatrix in="SourceAlpha" type="matrix" values="0 0 0 0 0 0 0 0 0 0 0 0 0 0 0 0 0 0 127 0"/>
<feOffset dy="4"/>
<feGaussianBlur stdDeviation="2"/>
<feColorMatrix type="matrix" values="0 0 0 0 0 0 0 0 0 0 0 0 0 0 0 0 0 0 0.25 0"/>
<feBlend mode="normal" in2="BackgroundImageFix" result="effect1_dropShadow"/>
<feBlend mode="normal" in="SourceGraphic" in2="effect1_dropShadow" result="shape"/>
</filter>
</defs>
</svg>
