<svg width="312" height="112" viewBox="0 0 312 112" fill="none" xmlns="http://www.w3.org/2000/svg">
<g filter="url(#filter0_d)">
<path fill-rule="evenodd" clip-rule="evenodd" d="M301 5L273 5V0L306 5.7699e-06V2V5.00001V35H301V5ZM9 2.00001L6 2.00001L4 2.00001L4 35H9L9 7.00001L39 7.00001V2.00001L9 2.00001ZM25.9999 12L25.9999 92H30.9999L30.9999 12H25.9999ZM55.9999 12L55.9999 72H60.9999L60.9999 12H55.9999ZM85.9999 72V12H90.9999V72H85.9999ZM116 12V72H121V12H116ZM146 72V12H151V72H146ZM176 12V72H181V12H176ZM206 72V12H211V72H206ZM236 12V72H241V12H236ZM266 72V12H271V72H266ZM40.9999 12L40.9999 72H45.9999L45.9999 12H40.9999ZM40.9999 92V82H45.9999V92H40.9999ZM55.9999 82V92H60.9999V82H55.9999ZM70.9999 92V82H75.9999V92H70.9999ZM85.9999 82V92H90.9999V82H85.9999ZM101 92V82H106V92H101ZM116 82V92H121V82H116ZM131 92V82H136V92H131ZM146 82V92H151V82H146ZM161 92V82H166V92H161ZM176 82V92H181V82H176ZM191 92V82H196V92H191ZM206 82V92H211V82H206ZM221 92V82H226V92H221ZM236 82V92H241V82H236ZM251 92V82H256V92H251ZM266 82V92H271V82H266ZM70.9999 72V12H75.9999V72H70.9999ZM101 12V72H106V12H101ZM131 72V12H136V72H131ZM161 12V72H166V12H161ZM191 72V12H196V72H191ZM221 12V72H226V12H221ZM251 72V12H256V72H251ZM281 12V92H286V12H281ZM5.99994 99V69H10.9999L10.9999 99H38.9999V104H5.99994L5.99994 102L5.99994 99ZM303 102L306 102L308 102V69H303V97L273 97V102H303Z" fill="white"/>
</g>
<defs>
<filter id="filter0_d" x="0" y="0" width="312" height="112" filterUnits="userSpaceOnUse" color-interpolation-filters="sRGB">
<feFlood flood-opacity="0" result="BackgroundImageFix"/>
<feColorMatrix in="SourceAlpha" type="matrix" values="0 0 0 0 0 0 0 0 0 0 0 0 0 0 0 0 0 0 127 0"/>
<feOffset dy="4"/>
<feGaussianBlur stdDeviation="2"/>
<feColorMatrix type="matrix" values="0 0 0 0 0 0 0 0 0 0 0 0 0 0 0 0 0 0 0.25 0"/>
<feBlend mode="normal" in2="BackgroundImageFix" result="effect1_dropShadow"/>
<feBlend mode="normal" in="SourceGraphic" in2="effect1_dropShadow" result="shape"/>
</filter>
</defs>
</svg>
