<svg width="308" height="109" viewBox="0 0 308 109" fill="none" xmlns="http://www.w3.org/2000/svg">
<g filter="url(#filter0_d)">
<path fill-rule="evenodd" clip-rule="evenodd" d="M9 101L104 101H205L299 101H304V96V6.00001V1.00001H299H209L209 0.950012L204 1.00001H108L108 0.950012L103 1.00001H9H4V6.00001V96V101H9ZM204.05 6.00001H108.05L108.95 96H204.95L204.05 6.00001ZM209.95 96H299V6.00001H209.05L209.95 96ZM9 6.00001H103.05L103.95 96H9V6.00001ZM63.7656 63.7656C65.5 61.2969 66.3672 57.5234 66.3672 52.4453V46.8203C66.3203 41.9141 65.4297 38.2891 63.6953 35.9453C61.9609 33.5859 59.2578 32.4063 55.5859 32.4063C51.8828 32.4063 49.1641 33.625 47.4297 36.0625C45.6953 38.5 44.8281 42.2266 44.8281 47.2422V53.0313C44.8906 57.8281 45.7969 61.4375 47.5469 63.8594C49.2969 66.2656 51.9922 67.4688 55.6328 67.4688C59.3203 67.4688 62.0312 66.2344 63.7656 63.7656ZM60.4844 38.5C61.5156 40.1719 62.0312 42.8438 62.0312 46.5156V53.6172C61.9844 57.1797 61.4375 59.7891 60.3906 61.4453C59.3594 63.1016 57.7734 63.9297 55.6328 63.9297C53.4609 63.9297 51.8359 63.0547 50.7578 61.3047C49.6953 59.5391 49.1641 56.8125 49.1641 53.125V46.1875C49.1953 42.7188 49.7188 40.1484 50.7344 38.4766C51.75 36.8047 53.3672 35.9688 55.5859 35.9688C57.8203 35.9688 59.4531 36.8125 60.4844 38.5ZM162.156 63.7656C163.891 61.2969 164.758 57.5234 164.758 52.4453V46.8203C164.711 41.9141 163.82 38.2891 162.086 35.9453C160.352 33.5859 157.648 32.4063 153.977 32.4063C150.273 32.4063 147.555 33.625 145.82 36.0625C144.086 38.5 143.219 42.2266 143.219 47.2422V53.0313C143.281 57.8281 144.188 61.4375 145.938 63.8594C147.688 66.2656 150.383 67.4688 154.023 67.4688C157.711 67.4688 160.422 66.2344 162.156 63.7656ZM158.875 38.5C159.906 40.1719 160.422 42.8438 160.422 46.5156V53.6172C160.375 57.1797 159.828 59.7891 158.781 61.4453C157.75 63.1016 156.164 63.9297 154.023 63.9297C151.852 63.9297 150.227 63.0547 149.148 61.3047C148.086 59.5391 147.555 56.8125 147.555 53.125V46.1875C147.586 42.7188 148.109 40.1484 149.125 38.4766C150.141 36.8047 151.758 35.9688 153.977 35.9688C156.211 35.9688 157.844 36.8125 158.875 38.5ZM260.547 63.7656C262.281 61.2969 263.148 57.5234 263.148 52.4453V46.8203C263.102 41.9141 262.211 38.2891 260.477 35.9453C258.742 33.5859 256.039 32.4063 252.367 32.4063C248.664 32.4063 245.945 33.625 244.211 36.0625C242.477 38.5 241.609 42.2266 241.609 47.2422V53.0313C241.672 57.8281 242.578 61.4375 244.328 63.8594C246.078 66.2656 248.773 67.4688 252.414 67.4688C256.102 67.4688 258.812 66.2344 260.547 63.7656ZM257.266 38.5C258.297 40.1719 258.812 42.8438 258.812 46.5156V53.6172C258.766 57.1797 258.219 59.7891 257.172 61.4453C256.141 63.1016 254.555 63.9297 252.414 63.9297C250.242 63.9297 248.617 63.0547 247.539 61.3047C246.477 59.5391 245.945 56.8125 245.945 53.125V46.1875C245.977 42.7188 246.5 40.1484 247.516 38.4766C248.531 36.8047 250.148 35.9688 252.367 35.9688C254.602 35.9688 256.234 36.8125 257.266 38.5ZM69.0859 71.6875H42.1328V74.0313H69.0859V71.6875ZM167.477 71.6875H140.523V74.0313H167.477V71.6875ZM265.867 71.6875H238.914V74.0313H265.867V71.6875Z" fill="white"/>
</g>
<defs>
<filter id="filter0_d" x="0" y="0.950012" width="308" height="108.05" filterUnits="userSpaceOnUse" color-interpolation-filters="sRGB">
<feFlood flood-opacity="0" result="BackgroundImageFix"/>
<feColorMatrix in="SourceAlpha" type="matrix" values="0 0 0 0 0 0 0 0 0 0 0 0 0 0 0 0 0 0 127 0"/>
<feOffset dy="4"/>
<feGaussianBlur stdDeviation="2"/>
<feColorMatrix type="matrix" values="0 0 0 0 0 0 0 0 0 0 0 0 0 0 0 0 0 0 0.25 0"/>
<feBlend mode="normal" in2="BackgroundImageFix" result="effect1_dropShadow"/>
<feBlend mode="normal" in="SourceGraphic" in2="effect1_dropShadow" result="shape"/>
</filter>
</defs>
</svg>
