<svg width="50" height="50" viewBox="0 0 50 50" fill="none" xmlns="http://www.w3.org/2000/svg">
<path fill-rule="evenodd" clip-rule="evenodd" d="M25.9561 49.9821C25.6389 49.994 25.3202 50 25 50C24.9498 50 24.8997 49.9999 24.8496 49.9996C25.2207 49.998 25.5896 49.9921 25.9561 49.9821ZM46.7624 37.3133C48.8233 33.6786 50 29.4767 50 25C50 11.1929 38.8071 0 25 0C11.1929 0 0 11.1929 0 25C0 29.1895 1.03053 33.1383 2.85192 36.6067C5.09068 32.4654 12.3984 29.2932 21.4378 28.6793C17.2716 27.2111 14.2857 23.2399 14.2857 18.5714C14.2857 12.6541 19.0827 7.85714 25 7.85714C30.9173 7.85714 35.7143 12.6541 35.7143 18.5714C35.7143 23.2871 32.6678 27.2912 28.4357 28.723C37.7063 29.4724 45.0464 32.9221 46.7624 37.3133Z" fill="#F3533B"/>
</svg>
